<svg width="12" height="12" viewBox="0 0 12 12" fill="none" xmlns="http://www.w3.org/2000/svg">
<path d="M8.354 1.646C8.43668 1.72886 8.48766 1.83809 8.49808 1.95468C8.50849 2.07126 8.47768 2.1878 8.411 2.284L8.354 2.354L4.707 6L8.354 9.646C8.43668 9.72886 8.48766 9.83809 8.49808 9.95467C8.50849 10.0713 8.47768 10.1878 8.411 10.284L8.354 10.354C8.27114 10.4367 8.16191 10.4877 8.04533 10.4981C7.92874 10.5085 7.8122 10.4777 7.716 10.411L7.646 10.354L3.646 6.354C3.56332 6.27115 3.51234 6.16191 3.50192 6.04533C3.49151 5.92874 3.52232 5.8122 3.589 5.716L3.646 5.646L7.646 1.646C7.69245 1.59944 7.74762 1.5625 7.80837 1.53729C7.86911 1.51208 7.93423 1.49911 8 1.49911C8.06577 1.49911 8.13089 1.51208 8.19163 1.53729C8.25238 1.5625 8.30755 1.59944 8.354 1.646V1.646Z" fill="#012B30"/>
</svg>
