<svg width="12" height="12" viewBox="0 0 12 12" fill="none" xmlns="http://www.w3.org/2000/svg">
<path d="M3.646 10.354C3.56333 10.2711 3.51234 10.1619 3.50192 10.0453C3.49151 9.92874 3.52232 9.8122 3.589 9.716L3.646 9.646L7.293 6L3.646 2.354C3.56333 2.27114 3.51234 2.16191 3.50192 2.04533C3.49151 1.92874 3.52232 1.8122 3.589 1.716L3.646 1.646C3.72886 1.56332 3.83809 1.51234 3.95467 1.50192C4.07126 1.49151 4.1878 1.52232 4.284 1.589L4.354 1.646L8.354 5.646C8.43668 5.72885 8.48766 5.83809 8.49808 5.95467C8.50849 6.07126 8.47768 6.1878 8.411 6.284L8.354 6.354L4.354 10.354C4.30756 10.4006 4.25238 10.4375 4.19163 10.4627C4.13089 10.4879 4.06577 10.5009 4 10.5009C3.93423 10.5009 3.86911 10.4879 3.80837 10.4627C3.74762 10.4375 3.69245 10.4006 3.646 10.354V10.354Z" fill="#012B30"/>
</svg>
