<svg width="61" height="42" viewBox="0 0 61 42" fill="none" xmlns="http://www.w3.org/2000/svg">
<path d="M29.1923 10.8757V24.0427H18.2863L29.1923 10.8757Z" fill="white"/>
<path d="M29.1923 6.1495C29.1923 7.59572 28.6178 8.98271 27.5952 10.0053C26.5726 11.028 25.1856 11.6025 23.7393 11.6025C22.2931 11.6025 20.9061 11.028 19.8835 10.0053C18.8609 8.98271 18.2863 7.59572 18.2863 6.1495H29.1923V6.1495Z" fill="white"/>
<path d="M30.989 24.0427C30.989 22.5964 31.5635 21.2094 32.5862 20.1868C33.6088 19.1642 34.9958 18.5897 36.442 18.5897C37.8882 18.5897 39.2752 19.1642 40.2979 20.1868C41.3205 21.2094 41.895 22.5964 41.895 24.0427H30.989Z" fill="white"/>
<path d="M30.989 19.3165V6.1495H41.8962L30.989 19.3165Z" fill="white"/>
<path d="M37.0895 35.3068C37.6503 35.3194 38.1934 35.1097 38.6003 34.7235L39.3493 35.532C38.8546 36.0407 38.1686 36.4187 37.1023 36.4187C35.2742 36.4187 34.0935 35.2065 34.0935 33.565C34.0861 33.189 34.1545 32.8155 34.2946 32.4665C34.4347 32.1176 34.6437 31.8004 34.909 31.534C35.1743 31.2675 35.4906 31.0573 35.839 30.9158C36.1874 30.7742 36.5607 30.7043 36.9366 30.7102C38.752 30.7102 39.781 32.0915 39.6911 34.0072H35.4002C35.5518 34.8028 36.1107 35.3103 37.0883 35.3103L37.0895 35.3068ZM38.3961 33.0937C38.2795 32.3505 37.8373 31.8033 36.9483 31.8033C36.1235 31.8033 35.5483 32.27 35.4002 33.0937H38.3961Z" fill="white"/>
<path d="M8.91336 35.2473L12.2162 31.892H8.99153V30.8397H13.7469V31.9142L10.444 35.2683H13.7912V36.3218H8.91336V35.2473Z" fill="white"/>
<path d="M17.5 35.3068C18.0608 35.3194 18.6039 35.1097 19.0108 34.7235L19.7598 35.532C19.2652 36.0407 18.5792 36.4187 17.5128 36.4187C15.6847 36.4187 14.504 35.2065 14.504 33.565C14.4966 33.189 14.565 32.8155 14.7051 32.4665C14.8452 32.1176 15.0542 31.8004 15.3195 31.534C15.5848 31.2675 15.9011 31.0573 16.2495 30.9158C16.5979 30.7742 16.9712 30.7043 17.3472 30.7102C19.1625 30.7102 20.1915 32.0915 20.1017 34.0072H15.8107C15.9623 34.8028 16.5212 35.3103 17.4988 35.3103L17.5 35.3068ZM18.8067 33.0937C18.69 32.3505 18.2478 31.8033 17.3588 31.8033C16.534 31.8033 15.9588 32.27 15.8107 33.0937H18.8067V33.0937Z" fill="white"/>
<path d="M27.2324 33.5638C27.2324 31.8138 28.5425 30.7125 29.9845 30.7125C30.3308 30.7079 30.6739 30.7791 30.9897 30.9212C31.3056 31.0633 31.5865 31.2728 31.8127 31.535V28.301H32.9794V36.3055H31.8127V35.5483C31.5908 35.8213 31.3103 36.0408 30.992 36.1907C30.6737 36.3405 30.3258 36.4169 29.974 36.414C28.574 36.414 27.2324 35.3068 27.2324 33.5638V33.5638ZM31.878 33.5533C31.8689 33.2112 31.759 32.8793 31.5622 32.5992C31.3654 32.3191 31.0904 32.1033 30.7715 31.9787C30.4527 31.8541 30.1042 31.8263 29.7697 31.8988C29.4351 31.9712 29.1293 32.1407 28.8906 32.386C28.6518 32.6313 28.4907 32.9415 28.4274 33.2779C28.364 33.6143 28.4013 33.9619 28.5345 34.2773C28.6677 34.5926 28.8909 34.8617 29.1762 35.0508C29.4615 35.2399 29.7962 35.3408 30.1385 35.3407C31.1407 35.3407 31.878 34.5403 31.878 33.5533Z" fill="white"/>
<path d="M40.4507 35.1423L41.5077 34.594C41.6474 34.8431 41.8525 35.0493 42.1009 35.1904C42.3493 35.3314 42.6315 35.4019 42.917 35.3943C43.5773 35.3943 43.9192 35.0548 43.9192 34.671C43.9192 34.2323 43.281 34.1332 42.5868 33.9908C41.6535 33.7937 40.6817 33.4857 40.6817 32.3575C40.6817 31.4907 41.5065 30.6903 42.8062 30.702C43.8293 30.702 44.59 31.108 45.0228 31.7648L44.0428 32.3027C43.9074 32.1021 43.7231 31.9395 43.5073 31.8301C43.2916 31.7206 43.0514 31.6681 42.8097 31.6773C42.182 31.6773 41.8623 31.9842 41.8623 32.3353C41.8623 32.7297 42.3687 32.8393 43.162 33.0155C44.065 33.2127 45.0882 33.509 45.0882 34.6488C45.0882 35.4048 44.4278 36.4245 42.8645 36.414C41.72 36.414 40.9162 35.9532 40.453 35.1423" fill="white"/>
<path d="M48.2557 33.8707L47.3305 34.8798V36.3043H46.1638V28.2998H47.3305V33.5417L49.8073 30.8222H51.2283L49.0805 33.1683L51.2832 36.3043H49.9625L48.2557 33.8707Z" fill="white"/>
<path d="M23.7055 30.7113C22.3183 30.7113 21.1563 31.6108 21.1563 33.1018V36.3043H22.3451V33.25C22.3451 32.3505 22.862 31.8127 23.7451 31.8127C24.6283 31.8127 25.067 32.3505 25.067 33.25V36.3043H26.25V33.1018C26.25 31.6108 25.0833 30.7113 23.7008 30.7113" fill="white"/>
</svg>
