<svg width="12" height="12" viewBox="0 0 12 12" fill="none" xmlns="http://www.w3.org/2000/svg">
<path fill-rule="evenodd" clip-rule="evenodd" d="M6 6C6 5.21207 5.84481 4.43185 5.54328 3.7039C5.24175 2.97595 4.79979 2.31451 4.24264 1.75736C3.68549 1.20021 3.02405 0.758251 2.2961 0.456723C1.56815 0.155195 0.787931 0 0 0V6C0 7.5913 0.632141 9.11742 1.75736 10.2426C2.88258 11.3679 4.4087 12 6 12C7.5913 12 9.11742 11.3679 10.2426 10.2426C11.3679 9.11742 12 7.5913 12 6V0C11.2121 0 10.4319 0.155195 9.7039 0.456723C8.97595 0.758251 8.31451 1.20021 7.75736 1.75736C7.20021 2.31451 6.75825 2.97595 6.45672 3.7039C6.15519 4.43185 6 5.21207 6 6Z" fill="#5EAE91"/>
</svg>
